<svg xmlns="http://www.w3.org/2000/svg" xmlns:xlink="http://www.w3.org/1999/xlink" viewBox="0 0 184.01 160.02"><defs><style>.cls-1{opacity:0.78;}.cls-1,.cls-3{filter:url(#AI_GaussianBlur_4);}.cls-2,.cls-4{fill:none;stroke-miterlimit:10;stroke-width:7px;}.cls-2{stroke:#d9e0ab;}.cls-3{opacity:0.23;}.cls-4{stroke:#ff0;}.cls-5{fill:#f7931e;}</style><filter id="AI_GaussianBlur_4" name="AI_GaussianBlur_4"><feGaussianBlur stdDeviation="4"/></filter></defs><title>Asset 3</title><g id="Layer_2" data-name="Layer 2"><g id="Layer_1-2" data-name="Layer 1"><g class="cls-1"><ellipse class="cls-2" cx="91.5" cy="80.73" rx="88" ry="75.79"/></g><g class="cls-3"><ellipse class="cls-4" cx="92.51" cy="79.29" rx="88" ry="75.79"/></g><path class="cls-5" d="M77.22,115.88c-24.44,0-42.16-17.57-42.16-43.91,0-27,21.49-45.26,50.53-45.26,20.83,0,32.48,11.31,32.48,22.46,0,6.58-4.93,11.65-12.31,11.65S93,56.09,88.21,46.8C82.14,35,79.84,33,76.24,33c-3.45,0-5.91,2.54-5.91,9,0,14.69,7.38,34.45,17.22,44.58,4.93,5.07,8.21,6.59,13.46,6.59,4.75,0,8.2-1.86,12.3-5.41,1.47-1.18,5.58,1.86,4.92,3.55C113.14,103.89,97.56,115.88,77.22,115.88Z" transform="translate(-18.3 -15.86)"/><path class="cls-5" d="M192.3,101.08c0,21.9-12.4,34.48-32.45,34.48a43.17,43.17,0,0,1-11.91-1.51V154.3c0,1.26.24,1.51,1.46,1.77l4.13.88c.73.12,1,.37,1,2.76s-.24,2.65-1,2.65c-2.8,0-10.7-.88-19.57-.88s-16.89.88-19.69.88c-.73,0-1-.38-1-2.65s.24-2.64,1-2.76l4.13-.88c1.22-.26,1.46-.51,1.46-1.77V93.79c0-1.26-.24-1.39-1.46-1.64l-4.13-.75c-.73-.13-1-.38-1-2.39s.24-2.14,1-2.39c10-4,19.45-10.19,29.17-17.37a1.6,1.6,0,0,1,1-.37c.85,0,3.16,1,3.16,1.88,0,2.14-.48,5.16-.48,13.09,4.13-9.94,11.54-14.22,19.93-14.22C179.66,69.63,192.3,80.2,192.3,101.08Zm-26.86,23.53c0-12.33-6.56-31.33-13.13-38.12A3.8,3.8,0,0,0,149.4,85a2.33,2.33,0,0,0-1.46.5v16.23c0,12,4.86,23.53,9,27.81a5.45,5.45,0,0,0,4.26,2C163.74,131.53,165.44,129.14,165.44,124.61Z" transform="translate(-18.3 -15.86)"/></g></g></svg>